HIERARCHY
ROOT Hips
{
    OFFSET 12.943675994873047 94.44121932983398 -18.4002685546875
    CHANNELS 6 Xposition Yposition Zposition Zrotation Xrotation Yrotation
    JOINT RightUpLeg
    {
        OFFSET -12.943675994873047 0.0 0.0
        CHANNELS 3 Zrotation Xrotation Yrotation
        JOINT RightLeg
        {
            OFFSET 0.0 -48.440555572509766 0.0
            CHANNELS 3 Zrotation Xrotation Yrotation
            JOINT RightFoot
            {
                OFFSET 0.0 -46.00066375732422 0.0
                CHANNELS 3 Zrotation Xrotation Yrotation
                End Site
                {
                    OFFSET 0.0 0.0 18.4002685546875
                }
            }
        }
    }
    JOINT LeftUpLeg
    {
        OFFSET 12.943675994873047 0.0 0.0
        CHANNELS 3 Zrotation Xrotation Yrotation
        JOINT LeftLeg
        {
            OFFSET 0.0 -48.440555572509766 0.0
            CHANNELS 3 Zrotation Xrotation Yrotation
            JOINT LeftFoot
            {
                OFFSET 0.0 -46.00066375732422 0.0
                CHANNELS 3 Zrotation Xrotation Yrotation
                End Site
                {
                    OFFSET 0.0 0.0 18.4002685546875
                }
            }
        }
    }
    JOINT Spine
    {
        OFFSET 0.0 25.66778564453125 0.0
        CHANNELS 3 Zrotation Xrotation Yrotation
        JOINT Spine3
        {
            OFFSET 0.0 25.491708755493164 0.0
            CHANNELS 3 Zrotation Xrotation Yrotation
            JOINT Neck
            {
                OFFSET 0.0 11.417024612426758 0.0
                CHANNELS 3 Zrotation Xrotation Yrotation
                End Site
                {
                    OFFSET 0.0 4.566810131072998 0.0
                }
            }
            JOINT LeftArm
            {
                OFFSET 13.65008544921875 0.0 0.0
                CHANNELS 3 Zrotation Xrotation Yrotation
                JOINT LeftForeArm
                {
                    OFFSET 28.714542388916016 0.0 0.0
                    CHANNELS 3 Zrotation Xrotation Yrotation
                    JOINT LeftHand
                    {
                        OFFSET 20.681278228759766 0.0 0.0
                        CHANNELS 3 Zrotation Xrotation Yrotation
                        End Site
                        {
                            OFFSET 8.272512435913086 0.0 0.0
                        }
                    }
                }
            }
            JOINT RightArm
            {
                OFFSET -13.65008544921875 0.0 0.0
                CHANNELS 3 Zrotation Xrotation Yrotation
                JOINT RightForeArm
                {
                    OFFSET -28.714542388916016 0.0 0.0
                    CHANNELS 3 Zrotation Xrotation Yrotation
                    JOINT RightHand
                    {
                        OFFSET -20.681278228759766 0.0 0.0
                        CHANNELS 3 Zrotation Xrotation Yrotation
                        End Site
                        {
                            OFFSET -8.272512435913086 0.0 0.0
                        }
                    }
                }
            }
        }
    }
}
MOTION
Frames: 10
Frame Time: 0.03333333333333333
0.0001399679167661816 95.82906341552734 -0.0008042675908654928 -11.403658216888534 -10.992276433125065 -29.840472448167716 6.401877144403147 22.799003040260775 -3.3854883825951103 -1.0902536408843089 7.063777330509822 -0.8526068294138623 0.0 0.0 -4.174478019420867e-15 0.45124956243276837 16.97796817466946 -0.8021306727967612 6.408912194039733 10.533436586475778 -1.6665942636155842 7.951386703658791e-16 -6.896728590703373e-33 -9.939233379573488e-16 3.770070428430825 23.822671801673405 -2.4542103023393937 1.2771409726259634e-07 -4.653697116927844e-07 0.38229268425289015 8.723805064383281 -0.12680190009044484 177.75927431852742 119.02101023369558 -14.923983174420616 -167.95288201023612 -1.7359299324447392e-06 2.943223969006583e-06 122.39935021800972 8.827812596100317e-32 -6.361109362927033e-15 1.5902773407317582e-15 -128.21224331804353 -33.70228815100496 153.26673278348557 -1.5422271341839218e-06 7.668795023489984e-07 -120.69865440762456 0.0 -6.3611093629270335e-15 0.0
9.424416202818975e-05 95.82902526855469 -0.0008042738190852106 -10.054347174407177 -10.845132206371135 -27.807639473059158 5.417182672726504 22.020199526130433 -3.1982573387268136 -0.9547946619211385 6.779583173595079 -0.8176243919216513 -2.069018577211012e-33 -1.5902773407317582e-15 -1.4908850069360232e-16 0.676833683695041 16.94375401933303 -1.095093335853021 3.601823366776335 9.081373057348394 -1.1422343677247493 -3.9756933518293955e-16 1.5345221114315003e-32 -4.422958853910203e-15 3.993126612208841 23.11801205550007 -2.7845823855327336 -2.0576804141061395e-07 -2.743604417736975e-07 -0.4479752653598299 9.223476097424133 -1.0099796311112115 178.1406060998085 117.3648603100806 -15.09177754552401 -166.67015779608016 1.2583000334622143e-06 7.014235858320651e-07 124.0334309566652 0.0 0.0 -7.951386703658792e-16 -128.82453474025397 -31.38454876533873 154.14419583129254 1.3749585962243647e-06 -4.057540153968447e-06 -117.98612372022872 -6.3611093629270335e-15 0.0 0.0
1.4934585124137811e-06 95.82903289794922 -0.0008495569927617908 -8.92382270577443 -10.744798441787964 -26.347436116610687 4.621496252090063 21.293258198227075 -3.029481108276244 -1.601612345294035 6.925713706735203 -0.7401086377701208 7.951386703658792e-16 -1.5902773407317584e-15 6.460501696722769e-16 0.8781027243782213 17.062925938047695 -1.3423382687425693 0.8590007490045483 7.521700882566438 -0.6865934391707593 5.963540027744096e-16 -3.4914688490435825e-33 -6.708982531212107e-16 4.195500318765974 22.098007843192946 -2.978744246697934 2.1979051452138213e-07 8.186681953801853e-07 -1.1869434705971715 9.718078480693348 -0.6692190063209097 178.33799616511604 115.12431597840018 -14.0560192160479 -165.4687950037051 3.253297891603236e-06 -6.720653092699234e-06 126.1271988207483 0.0 6.3611093629270335e-15 0.0 -129.33095110623637 -29.557699391799993 155.07351149533557 -2.8788107588321825e-06 -2.1419395974095694e-06 -115.4259943560042 -6.3611093629270335e-15 0.0 0.0
-0.00012491800589486957 95.82913208007812 -0.000965469575021416 -7.701746445021419 -10.858329275751974 -24.325185551419192 3.9440340908157494 20.500624640451374 -2.840407869139815 -2.5020938718645627 7.254954176367509 -0.6384572938198756 -1.517280289954742e-32 1.5902773407317584e-15 1.0933156717530838e-15 0.828637808971245 17.260271385024772 -1.4776085367673473 -1.2693604435594166 6.759199810530171 -0.410147331383175 -1.987846675914698e-16 2.4848083448933725e-17 2.1120870931593667e-16 4.443996086926972 21.2671280581156 -3.1302754390461924 1.2698462016869444e-07 -1.9529712316093036e-07 -1.8313014122337579 9.617835259979866 -0.13378428598880138 177.42707187725705 113.5992034793911 -13.912645251005607 -164.5007461094178 1.695610496786737e-06 4.641232970021505e-06 128.74568344841921 0.0 -6.361109362927033e-15 0.0 -128.96772774706827 -26.779697361128676 156.69201169182904 -7.146649376279193e-07 -1.3603301417036412e-06 -113.65315191471926 0.0 3.1805546814635168e-15 0.0
-0.00010338153515476733 95.82913208007812 -0.000990597647614777 -6.781232829573928 -11.323855177480688 -22.425632952904362 3.6521141914053614 20.00156035201128 -2.785632499264989 -3.3802475629983326 7.723952054233506 -0.5682256778453767 -6.957463365701443e-16 -3.1805546814635168e-15 -1.4908850069360237e-16 0.3921753305969861 17.832054702422347 -1.490916650920421 -2.5033150795425883 6.13917195146609 -0.22742161496611432 1.5194355176393368e-33 -4.969616689786745e-17 3.503579766299655e-15 4.675699564012169 20.960493512800518 -3.290668160217801 6.492791667957483e-07 -8.997623356041317e-07 -2.4870267190816775 9.154342254918904 0.5412820808429569 176.59737576708335 112.24218749066203 -13.294239431103955 -164.3666085331269 6.759246133077801e-07 3.1304610317866753e-07 130.16130190736402 -6.3611093629270335e-15 6.620859447075238e-32 -1.1927080055488188e-15 -128.97757088180825 -24.88495829332754 157.53931615403627 -1.3921301407075228e-07 2.545777910950343e-06 -113.35893061633975 0.0 0.0 6.361109362927032e-15
-6.428522465284914e-05 95.8292007446289 -0.0009865735191851854 -5.8453875229969485 -11.632876692483155 -21.19282824327216 2.9769939333384956 19.530660326189384 -2.637001605265812 -4.3711354401940365 8.35327958902103 -0.4384019160498486 -9.939233379573479e-17 -3.1805546814635168e-15 3.922891174500412e-15 -0.14559786046247694 18.003023226133216 -1.4694058508428713 -3.404703539874882 5.899111711023313 -0.11423785867868211 0.0 0.0 1.4908850069360235e-16 4.904246638910255 20.788866160362534 -3.502015158200754 -3.081994279057738e-07 1.04698714184095e-07 -3.1065961971737304 8.819661098796836 1.3535744822986084 176.99302218996183 111.04329825931657 -12.79665340458532 -163.96586830023713 -3.5844011896806214e-06 2.7152583566885177e-06 132.0074213723263 4.4139062980501586e-32 6.3611093629270335e-15 -7.951386703658792e-16 -129.21465808099794 -24.113771973634087 158.21430743012567 2.798651162255892e-06 1.025882405299883e-06 -113.24530229408349 0.0 -3.1805546814635168e-15 0.0
-6.18713820585981e-05 95.82931518554688 -0.0010090945288538933 -4.8344836389639045 -11.924429292066558 -19.864984589352403 2.33664014306839 19.072415319816624 -2.4930301499845218 -5.60750926286783 9.03137748138004 -0.24482711259858617 3.975693351829396e-16 4.827710013492361e-33 1.3914926731402886e-15 -1.0055693074671133 18.03984005452775 -1.325107989105747 -3.8955553968392054 5.725721871005617 -0.016967233098226463 -4.138037154422024e-33 1.5902773407317584e-15 2.981770013872047e-16 5.047981587904309 20.480220859713835 -3.643013949413153 -1.6399905135731768e-07 -3.9879084912374037e-10 -3.6295928283403027 8.016758812012679 2.136463562424656 176.56845414099726 110.91514726668598 -14.194952031603048 -162.97106086817854 8.332672120795281e-07 -2.447228403989077e-06 132.3162302119601 -8.827812596100317e-32 6.3611093629270335e-15 1.5902773407317584e-15 -128.9238823987498 -23.643338656317937 158.62180916829357 3.430133586308948e-07 7.98530063100755e-07 -113.35857576790347 -6.361109362927032e-15 -6.361109362927032e-15 -3.531125038440127e-31
-3.935860877390951e-05 95.82948303222656 -0.0010525089455768466 -3.800598791461746 -12.134381131259758 -18.371102433401443 1.8448456110560054 18.58639506693672 -2.4478198705814855 -7.245612520142356 9.641066791209115 0.001908174550547239 -3.975693351829396e-16 -1.5690057543850172e-32 4.522351187705938e-15 -1.9605569694621245 18.143978642613874 -1.2036168467779338 -3.8488225281304733 5.498565714625733 0.016956179065366506 0.0 0.0 1.341796506242421e-15 4.886611144376654 20.127025956099466 -3.7179060528273022 3.7046322118029116e-07 -4.429667284917057e-08 -3.825199010371684 7.826602783191718 2.82835343877421 176.55955936660453 110.99297517829699 -15.179179421238326 -163.36654694093113 1.393134453389761e-06 -1.1185311363567413e-06 133.27690533385876 -6.361109362927033e-15 -3.310429723537619e-32 5.963540027744093e-16 -128.03940180453063 -22.886607753827185 160.1639841036904 -1.9412645753730357e-06 -4.368829939314413e-07 -112.9687131617817 6.361109362927033e-15 3.531125038440127e-31 6.361109362927033e-15
6.184977974044159e-05 95.8294448852539 -0.001007991493679583 -3.1296518347232873 -12.526218348043223 -17.706171418291635 1.9524632678557394 17.98986660142254 -2.5663725219465703 -9.72633409259415 10.477206060856064 0.3419540646775409 -8.819191685361939e-32 3.0811623476677818e-15 3.2799470152592518e-15 -3.2456286340893636 18.195316315850757 -0.9640685349224959 -3.435945224398546 5.394579366339273 0.04710620361227673 -1.9310840053969444e-32 1.5902773407317584e-15 1.3914926731402886e-15 4.8476067662484175 20.303620504665343 -3.9179580233068414 4.093415282005133e-07 2.7344418690490577e-07 -3.740986483316964 7.66484338674224 2.9371375380479376 176.34486135894645 111.27142589075144 -16.422539767223938 -163.85913512328545 4.882447995290104e-06 8.954496367009285e-07 133.39635443945718 6.3611093629270335e-15 6.3611093629270335e-15 -1.9878466759147014e-16 -128.2926598194034 -23.663880937572856 160.67479158845353 -2.2295444158174417e-06 -7.170508361454624e-07 -111.24017703218142 -6.3611093629270335e-15 3.1805546814635168e-15 1.7655625192200634e-31
0.00015387409075628966 95.82935333251953 -0.0009517387370578945 -2.3297565994048446 -13.108066344378168 -16.239767081981036 1.9750803593665922 17.659228901907635 -2.7123445937637882 -11.592591324914057 11.954602568335716 0.6515652776525032 2.586273221513765e-34 -9.93923337957349e-17 2.981770013872047e-16 -4.177516293296609 18.516812805412975 -0.8734653410748525 -3.4264460641939856 5.852986055671478 0.08320077059025847 0.0 0.0 -1.987846675914698e-16 4.47530189421621 20.439399451388518 -4.023724954396541 -9.693396051936318e-08 3.152714828367129e-08 -3.7788350259453702 7.624653578072275 3.160065812686804 175.5039675274552 111.41946911714676 -16.718017662854045 -163.92365156158826 -2.192464042615665e-06 -3.5986009906636814e-06 133.45488616630237 6.3611093629270335e-15 6.3611093629270335e-15 4.373262687012335e-15 -128.41646144426753 -25.034683162332044 160.89536000085528 -7.457846581400222e-06 -1.0167301786935941e-06 -111.06348147902418 0.0 0.0 0.0
